<svg width="299" height="54" viewBox="0 0 299 54" fill="none" xmlns="http://www.w3.org/2000/svg">
<path d="M79.3758 27.5215C79.3281 27.5058 79.0423 27.4272 78.9947 27.4272C75.819 26.7195 70.1346 25.9017 60.9093 25.9331C53.1765 25.9489 44.2053 27.7731 41.4742 28.2921L56.7015 19.6268L45.9678 12.597L0 53.7534C0 53.7534 24.5479 34.394 62.1001 33.9851C96.3497 33.6077 122.279 53.7534 122.279 53.7534L60.8458 0L50.4137 8.9327L79.0423 27.3171" fill="#FF0000"/>
<path d="M163.763 38.658H151.427L149.708 44.5444H138.625L151.845 9.54437H163.699L176.918 44.5444H165.546L163.763 38.658ZM161.514 31.1807L157.627 18.6603L153.788 31.1807H161.514Z" fill="black"/>
<path d="M179.649 9.54437H206.634V16.8626H190.411V23.0671H204.225V30.2262H190.411V44.5444H179.649V9.54437Z" fill="black"/>
<path d="M209.846 9.54437H243.096V16.8626H231.852V44.5444H220.769V16.8626H209.846V9.54437Z" fill="black"/>
<path d="M246.63 9.54437H257.231V44.5444H246.63V9.54437Z" fill="black"/>
<path d="M285.758 38.658H273.422L271.704 44.5444H260.604L273.824 9.54437H285.678L298.898 44.5444H287.525L285.758 38.658ZM283.494 31.1807L279.606 18.6603L275.767 31.1807H283.494Z" fill="black"/>
</svg>
